# xmcd
#
# Track frame offsets:
#	150
#	22869
#	39908
#	68905
#	89434
#	108878
#	131328
#	153003
#	170698
#	188887
#	210493
#	233214
#	249291
#	271525
#	291703
#	311637
#	331061
#
# Disc length: 4726 seconds
#
# Revision: 2
# Processed by: cddbd v1.5.2PL0 Copyright (c) Steve Scherf et al.
# Submitted via: EasyCDDAExtractor 12.0.1.1
#
DISCID=dc127411
DTITLE=Various Artist - Ultimate Slow Jams CD3
DYEAR=1900
DGENRE=R&B
TTITLE0=Mariah Carey Ft. Nas and Joe - Make It Last Forever
TTITLE1=Case and Joe - Faded Pictures
TTITLE2=Ginuwine, R Kelly, Tyrese, Case - The Best Man I Can Be
TTITLE3=Davina - So Good
TTITLE4=Mya - Its All About Me
TTITLE5=Mary J Blige - Everything
TTITLE6=Mary J Blige - I'm Not Gonna Cry
TTITLE7=Isley Brothers - Busted
TTITLE8=112 - Cupid
TTITLE9=Next - Butta Love
TTITLE10=Silk - Meeting In My Bedroom
TTITLE11=Jagged Edge - I Gotta Be The One
TTITLE12=Blackstreet - Before I Let You Go
TTITLE13=Jon B - They Don't Know
TTITLE14=Maxwell - Woman's Worth
TTITLE15=IMX - Beautiful (You Are)
TTITLE16=3T - I Will Do Anything For U
EXTD=
EXTT0=
EXTT1=
EXTT2=
EXTT3=
EXTT4=
EXTT5=
EXTT6=
EXTT7=
EXTT8=
EXTT9=
EXTT10=
EXTT11=
EXTT12=
EXTT13=
EXTT14=
EXTT15=
EXTT16=
PLAYORDER=
